<svg width="697" height="205" xmlns="http://www.w3.org/2000/svg">
 <!-- Created with Method Draw - http://github.com/duopixel/Method-Draw/ -->

 <g>
  <title>background</title>
  <rect fill="none" id="canvas_background" height="207" width="699" y="-1" x="-1"/>
  <g display="none" id="canvasGrid">
   <rect fill="url(#gridpattern)" stroke-width="0" y="0" x="0" height="100%" width="100%" id="svg_4"/>
  </g>
 </g>
 <g>
  <title>Layer 1</title>
  <rect id="svg_1" height="136.000003" width="173.999998" y="45.837498" x="4.104153" stroke-width="1.5" fill="#666666"/>
  <rect stroke="null" id="svg_2" height="21" width="44.999999" y="29.837501" x="33.500001" stroke-opacity="null" stroke-width="1.5" fill="#666666"/>
  <rect stroke="null" id="svg_3" height="17.000001" width="24" y="20.231817" x="44.077269" stroke-opacity="null" stroke-width="1.5" fill="#666666"/>
  <rect transform="rotate(-0.46993210911750793 138.00000000000165,37.44165039062473) " id="svg_5" height="36" width="11" y="19.441651" x="132.5" stroke-opacity="null" stroke-width="1.5" stroke="null" fill="#666666"/>
  <rect stroke="null" id="svg_6" height="11" width="43.000004" y="11.441652" x="132.499995" stroke-opacity="null" stroke-width="1.5" fill="#666666"/>
  <ellipse stroke="#ffffff" ry="66.000014" rx="70.500002" id="svg_12" cy="132.837502" cx="109.999992" stroke-width="7.5" fill="#ffffff"/>
  <ellipse ry="58.288634" rx="62.499999" id="svg_13" cy="132.730283" cx="110.605686" stroke-width="4" fill="#ffffff" stroke="#666666"/>
  <rect stroke="null" id="svg_14" height="191.999987" width="22" y="2.837507" x="163.130573" stroke-width="4" fill="#ff7f00"/>
  <rect stroke="null" id="svg_15" height="48.000002" width="507.802601" y="146.200556" x="183.5" stroke-opacity="null" stroke-width="1.5" fill="#ff7f00"/>
  <text font-weight="normal" stroke="#000000" transform="matrix(1.1834477185927983,0,0,1.185149431228637,-115.71053802492702,-106.96045334264633) " xml:space="preserve" text-anchor="start" font-family="Helvetica, Arial, sans-serif" font-size="24" id="svg_17" y="242.722742" x="262.612767" stroke-width="0" fill="#ffffff">PAI XIE Backend Management System</text>
  <text stroke="null" transform="matrix(11.798193230613641,0,0,11.762585777653937,-4867.674396487333,-835.827037773361) " xml:space="preserve" text-anchor="start" font-family="Helvetica, Arial, sans-serif" font-size="7" id="svg_8" y="80.189998" x="428.899199" fill-opacity="null" stroke-opacity="null" stroke-width="0" fill="#666666">後台管理系統</text>
 </g>
</svg>